<svg xmlns="http://www.w3.org/2000/svg" viewBox="0 0 400 300"><rect width="400" height="300" fill="#f4ebdc"/><g transform="rotate(-10 118 160)"><rect x="38" y="80" width="153" height="170" rx="35" fill="#afcbb7"/><rect x="38" y="70" width="153" height="170" rx="35" fill="#c9e7d7"/><path d="M115 95Q116 128 145 130Q116 131 115 163Q113 131 85 130Q113 128 115 95" fill="#407e60"/><path d="M83 190h65" stroke="#407e60" stroke-width="12" stroke-linecap="round"/></g><g transform="rotate(10 281 158)"><rect x="212" y="83" width="147" height="170" rx="35" fill="#ddb29e"/><rect x="212" y="73" width="147" height="170" rx="35" fill="#f6c8bd"/><path d="M270 111v49m30-49v49" stroke="#ae5748" stroke-width="13" stroke-linecap="round"/><path d="M256 193h57" stroke="#ae5748" stroke-width="12" stroke-linecap="round"/></g><circle cx="173" cy="65" r="24" fill="#fffdf8"/><path d="M163 65h20m-10-10v20" stroke="#558064" stroke-width="5" stroke-linecap="round"/><circle cx="357" cy="91" r="24" fill="#fffdf8"/><path d="M347 91h20" stroke="#bd6651" stroke-width="5" stroke-linecap="round"/><path d="m206 24-10 22m41-12-15 14m-46-21 3 16" stroke="#dfb895" stroke-width="5" stroke-linecap="round"/></svg>
